<svg width="48" height="42" viewBox="0 0 48 42" fill="none" xmlns="http://www.w3.org/2000/svg">
<mask id="path-1-inside-1_403_406" fill="white">
<ellipse cx="17.051" cy="36.9204" rx="2.52613" ry="2.52"/>
</mask>
<path d="M16.5772 36.9204C16.5772 36.6484 16.7962 36.4404 17.051 36.4404V42.4404C20.0962 42.4404 22.5772 39.9759 22.5772 36.9204H16.5772ZM17.051 36.4404C17.3059 36.4404 17.5249 36.6484 17.5249 36.9204H11.5249C11.5249 39.9759 14.0059 42.4404 17.051 42.4404V36.4404ZM17.5249 36.9204C17.5249 37.1924 17.3059 37.4004 17.051 37.4004V31.4004C14.0059 31.4004 11.5249 33.8649 11.5249 36.9204H17.5249ZM17.051 37.4004C16.7962 37.4004 16.5772 37.1924 16.5772 36.9204H22.5772C22.5772 33.8649 20.0962 31.4004 17.051 31.4004V37.4004Z" fill="black" mask="url(#path-1-inside-1_403_406)"/>
<mask id="path-3-inside-2_403_406" fill="white">
<ellipse cx="30.7639" cy="39.0796" rx="2.52613" ry="2.52"/>
</mask>
<path d="M30.2901 39.0796C30.2901 38.8076 30.5091 38.5996 30.7639 38.5996V44.5996C33.809 44.5996 36.2901 42.1351 36.2901 39.0796H30.2901ZM30.7639 38.5996C31.0188 38.5996 31.2378 38.8076 31.2378 39.0796H25.2378C25.2378 42.1351 27.7188 44.5996 30.7639 44.5996V38.5996ZM31.2378 39.0796C31.2378 39.3515 31.0188 39.5596 30.7639 39.5596V33.5596C27.7188 33.5596 25.2378 36.0241 25.2378 39.0796H31.2378ZM30.7639 39.5596C30.5091 39.5596 30.2901 39.3515 30.2901 39.0796H36.2901C36.2901 36.0241 33.809 33.5596 30.7639 33.5596V39.5596Z" fill="black" mask="url(#path-3-inside-2_403_406)"/>
<path d="M0.812012 2L8.75128 4.52L11.6383 12.44M11.6383 12.44L42.3127 6.32L45.9215 29.36L14.5253 26.12M11.6383 12.44L14.5253 26.12M14.5253 26.12L15.6079 33.68L34.0126 36.2" stroke="black" stroke-width="3"/>
<path d="M13.4421 16.7599L43.7557 13.8799" stroke="black" stroke-width="3"/>
<path d="M13.4421 21.4404L45.1992 23.2404" stroke="black" stroke-width="3"/>
<path d="M21.3813 11L26.7945 26.84" stroke="black" stroke-width="3"/>
<path d="M36.5393 8.12012V27.9201" stroke="black" stroke-width="3"/>
</svg>
